<mxfile host="app.diagrams.net" modified="2022-01-21T09:26:25.269Z" agent="5.0 (Windows)" etag="0wWT3OD5Ze-Q3pI-tEV9" version="16.4.3" type="github">
  <diagram id="Arsce1lhnxzf3GvLfII_" name="第1頁">
    <mxGraphModel dx="1422" dy="744" grid="1" gridSize="10" guides="1" tooltips="1" connect="1" arrows="1" fold="1" page="1" pageScale="1" pageWidth="1169" pageHeight="827" math="0" shadow="0">
      <root>
        <mxCell id="0" />
        <mxCell id="1" parent="0" />
        <mxCell id="IJgvYfBa4twYxpsfo-ho-1" value="users" style="swimlane;fontStyle=0;childLayout=stackLayout;horizontal=1;startSize=40;horizontalStack=0;resizeParent=1;resizeParentMax=0;resizeLast=0;collapsible=1;marginBottom=0;align=left;fontSize=16;fontColor=#FFFFFF;fillColor=#FF6602;spacing=0;strokeColor=#FFFFFF;strokeWidth=2;spacingLeft=10;" parent="1" vertex="1">
          <mxGeometry x="260" y="180" width="165" height="160" as="geometry">
            <mxRectangle x="150" y="220" width="110" height="40" as="alternateBounds" />
          </mxGeometry>
        </mxCell>
        <mxCell id="IJgvYfBa4twYxpsfo-ho-2" value="PK : id" style="text;strokeColor=#FFFFFF;fillColor=#FDE5CD;spacingLeft=10;spacingRight=0;overflow=hidden;rotatable=0;points=[[0,0.5],[1,0.5]];portConstraint=eastwest;fontSize=16;strokeWidth=2;perimeterSpacing=0;sketch=0;shadow=0;rounded=0;glass=0;spacing=0;fontStyle=0" parent="IJgvYfBa4twYxpsfo-ho-1" vertex="1">
          <mxGeometry y="40" width="165" height="30" as="geometry" />
        </mxCell>
        <mxCell id="IJgvYfBa4twYxpsfo-ho-3" value="name" style="text;strokeColor=#FFFFFF;fillColor=#FDE5CD;spacingLeft=10;spacingRight=0;overflow=hidden;rotatable=0;points=[[0,0.5],[1,0.5]];portConstraint=eastwest;fontSize=16;strokeWidth=2;sketch=0;shadow=0;rounded=0;glass=0;spacing=0;" parent="IJgvYfBa4twYxpsfo-ho-1" vertex="1">
          <mxGeometry y="70" width="165" height="30" as="geometry" />
        </mxCell>
        <mxCell id="37sV9JPSji_vyPsbSzuJ-125" value="email" style="text;strokeColor=#FFFFFF;fillColor=#FDE5CD;spacingLeft=10;spacingRight=0;overflow=hidden;rotatable=0;points=[[0,0.5],[1,0.5]];portConstraint=eastwest;fontSize=16;strokeWidth=2;sketch=0;shadow=0;rounded=0;glass=0;spacing=0;" parent="IJgvYfBa4twYxpsfo-ho-1" vertex="1">
          <mxGeometry y="100" width="165" height="30" as="geometry" />
        </mxCell>
        <mxCell id="IJgvYfBa4twYxpsfo-ho-5" value="password" style="text;strokeColor=#FFFFFF;fillColor=#FDE5CD;spacingLeft=10;spacingRight=0;overflow=hidden;rotatable=0;points=[[0,0.5],[1,0.5]];portConstraint=eastwest;fontSize=16;strokeWidth=2;sketch=0;shadow=0;rounded=0;glass=0;spacing=0;" parent="IJgvYfBa4twYxpsfo-ho-1" vertex="1">
          <mxGeometry y="130" width="165" height="30" as="geometry" />
        </mxCell>
        <mxCell id="IJgvYfBa4twYxpsfo-ho-6" value="favorites" style="swimlane;fontStyle=0;childLayout=stackLayout;horizontal=1;startSize=40;horizontalStack=0;resizeParent=1;resizeParentMax=0;resizeLast=0;collapsible=1;marginBottom=0;align=left;fontSize=16;fontColor=#FFFFFF;fillColor=#FF6602;spacing=0;strokeColor=#FFFFFF;strokeWidth=2;spacingLeft=10;" parent="1" vertex="1">
          <mxGeometry x="515" y="180" width="165" height="130" as="geometry">
            <mxRectangle x="150" y="220" width="110" height="40" as="alternateBounds" />
          </mxGeometry>
        </mxCell>
        <mxCell id="IJgvYfBa4twYxpsfo-ho-7" value="PK : id" style="text;strokeColor=#FFFFFF;fillColor=#FDE5CD;spacingLeft=10;spacingRight=0;overflow=hidden;rotatable=0;points=[[0,0.5],[1,0.5]];portConstraint=eastwest;fontSize=16;strokeWidth=2;perimeterSpacing=0;sketch=0;shadow=0;rounded=0;glass=0;spacing=0;fontStyle=0" parent="IJgvYfBa4twYxpsfo-ho-6" vertex="1">
          <mxGeometry y="40" width="165" height="30" as="geometry" />
        </mxCell>
        <mxCell id="IJgvYfBa4twYxpsfo-ho-8" value="data-last-use" style="text;strokeColor=#FFFFFF;fillColor=#FDE5CD;spacingLeft=10;spacingRight=0;overflow=hidden;rotatable=0;points=[[0,0.5],[1,0.5]];portConstraint=eastwest;fontSize=16;strokeWidth=2;sketch=0;shadow=0;rounded=0;glass=0;spacing=0;" parent="IJgvYfBa4twYxpsfo-ho-6" vertex="1">
          <mxGeometry y="70" width="165" height="30" as="geometry" />
        </mxCell>
        <mxCell id="IJgvYfBa4twYxpsfo-ho-9" value="FK : user_id" style="text;strokeColor=#FFFFFF;fillColor=#FDE5CD;spacingLeft=10;spacingRight=0;overflow=hidden;rotatable=0;points=[[0,0.5],[1,0.5]];portConstraint=eastwest;fontSize=16;strokeWidth=2;sketch=0;shadow=0;rounded=0;glass=0;spacing=0;" parent="IJgvYfBa4twYxpsfo-ho-6" vertex="1">
          <mxGeometry y="100" width="165" height="30" as="geometry" />
        </mxCell>
        <mxCell id="IJgvYfBa4twYxpsfo-ho-10" style="edgeStyle=orthogonalEdgeStyle;rounded=0;orthogonalLoop=1;jettySize=auto;html=1;fontSize=16;fontColor=#FFFFFF;strokeWidth=3;strokeColor=#33BFCC;entryX=0;entryY=0.5;entryDx=0;entryDy=0;" parent="1" source="IJgvYfBa4twYxpsfo-ho-2" target="IJgvYfBa4twYxpsfo-ho-9" edge="1">
          <mxGeometry relative="1" as="geometry">
            <Array as="points">
              <mxPoint x="470" y="235" />
              <mxPoint x="470" y="295" />
            </Array>
          </mxGeometry>
        </mxCell>
        <mxCell id="IJgvYfBa4twYxpsfo-ho-11" value="&lt;div&gt;1&lt;/div&gt;" style="text;html=1;align=center;verticalAlign=middle;resizable=0;points=[];autosize=1;strokeColor=none;fillColor=none;fontSize=16;fontColor=#000000;" parent="1" vertex="1">
          <mxGeometry x="430" y="210" width="20" height="20" as="geometry" />
        </mxCell>
        <mxCell id="IJgvYfBa4twYxpsfo-ho-12" value="M" style="text;html=1;align=center;verticalAlign=middle;resizable=0;points=[];autosize=1;strokeColor=none;fillColor=none;fontSize=16;fontColor=#000000;" parent="1" vertex="1">
          <mxGeometry x="475" y="270" width="30" height="20" as="geometry" />
        </mxCell>
        <mxCell id="IJgvYfBa4twYxpsfo-ho-13" value="favorite_restaurants" style="swimlane;fontStyle=0;childLayout=stackLayout;horizontal=1;startSize=40;horizontalStack=0;resizeParent=1;resizeParentMax=0;resizeLast=0;collapsible=1;marginBottom=0;align=left;fontSize=16;fontColor=#FFFFFF;fillColor=#FF6602;spacing=0;strokeColor=#FFFFFF;strokeWidth=2;spacingLeft=10;" parent="1" vertex="1">
          <mxGeometry x="770" y="180" width="165" height="160" as="geometry">
            <mxRectangle x="150" y="220" width="110" height="40" as="alternateBounds" />
          </mxGeometry>
        </mxCell>
        <mxCell id="IJgvYfBa4twYxpsfo-ho-14" value="PK : id" style="text;strokeColor=#FFFFFF;fillColor=#FDE5CD;spacingLeft=10;spacingRight=0;overflow=hidden;rotatable=0;points=[[0,0.5],[1,0.5]];portConstraint=eastwest;fontSize=16;strokeWidth=2;perimeterSpacing=0;sketch=0;shadow=0;rounded=0;glass=0;spacing=0;fontStyle=0" parent="IJgvYfBa4twYxpsfo-ho-13" vertex="1">
          <mxGeometry y="40" width="165" height="30" as="geometry" />
        </mxCell>
        <mxCell id="IJgvYfBa4twYxpsfo-ho-15" value="date" style="text;strokeColor=#FFFFFF;fillColor=#FDE5CD;spacingLeft=10;spacingRight=0;overflow=hidden;rotatable=0;points=[[0,0.5],[1,0.5]];portConstraint=eastwest;fontSize=16;strokeWidth=2;sketch=0;shadow=0;rounded=0;glass=0;spacing=0;" parent="IJgvYfBa4twYxpsfo-ho-13" vertex="1">
          <mxGeometry y="70" width="165" height="30" as="geometry" />
        </mxCell>
        <mxCell id="IJgvYfBa4twYxpsfo-ho-16" value="FK : favorite_id" style="text;strokeColor=#FFFFFF;fillColor=#FDE5CD;spacingLeft=10;spacingRight=0;overflow=hidden;rotatable=0;points=[[0,0.5],[1,0.5]];portConstraint=eastwest;fontSize=16;strokeWidth=2;sketch=0;shadow=0;rounded=0;glass=0;spacing=0;" parent="IJgvYfBa4twYxpsfo-ho-13" vertex="1">
          <mxGeometry y="100" width="165" height="30" as="geometry" />
        </mxCell>
        <mxCell id="IJgvYfBa4twYxpsfo-ho-17" value="FK : restaurant_id" style="text;strokeColor=#FFFFFF;fillColor=#FDE5CD;spacingLeft=10;spacingRight=0;overflow=hidden;rotatable=0;points=[[0,0.5],[1,0.5]];portConstraint=eastwest;fontSize=16;strokeWidth=2;sketch=0;shadow=0;rounded=0;glass=0;spacing=0;" parent="IJgvYfBa4twYxpsfo-ho-13" vertex="1">
          <mxGeometry y="130" width="165" height="30" as="geometry" />
        </mxCell>
        <mxCell id="IJgvYfBa4twYxpsfo-ho-20" value="M" style="text;html=1;align=center;verticalAlign=middle;resizable=0;points=[];autosize=1;strokeColor=none;fillColor=none;fontSize=16;fontColor=#000000;" parent="1" vertex="1">
          <mxGeometry x="730" y="270" width="30" height="20" as="geometry" />
        </mxCell>
        <mxCell id="IJgvYfBa4twYxpsfo-ho-21" value="1" style="text;html=1;align=center;verticalAlign=middle;resizable=0;points=[];autosize=1;strokeColor=none;fillColor=none;fontSize=16;fontColor=#000000;" parent="1" vertex="1">
          <mxGeometry x="685" y="210" width="20" height="20" as="geometry" />
        </mxCell>
        <mxCell id="IJgvYfBa4twYxpsfo-ho-22" value="restaurants" style="swimlane;fontStyle=0;childLayout=stackLayout;horizontal=1;startSize=40;horizontalStack=0;resizeParent=1;resizeParentMax=0;resizeLast=0;collapsible=1;marginBottom=0;align=left;fontSize=16;fontColor=#FFFFFF;fillColor=#FF6602;spacing=0;strokeColor=#FFFFFF;strokeWidth=2;spacingLeft=10;" parent="1" vertex="1">
          <mxGeometry x="509.99999999999994" y="440" width="165" height="190" as="geometry">
            <mxRectangle x="150" y="220" width="110" height="40" as="alternateBounds" />
          </mxGeometry>
        </mxCell>
        <mxCell id="IJgvYfBa4twYxpsfo-ho-23" value="PK : id" style="text;strokeColor=#FFFFFF;fillColor=#FDE5CD;spacingLeft=10;spacingRight=0;overflow=hidden;rotatable=0;points=[[0,0.5],[1,0.5]];portConstraint=eastwest;fontSize=16;strokeWidth=2;perimeterSpacing=0;sketch=0;shadow=0;rounded=0;glass=0;spacing=0;fontStyle=0" parent="IJgvYfBa4twYxpsfo-ho-22" vertex="1">
          <mxGeometry y="40" width="165" height="30" as="geometry" />
        </mxCell>
        <mxCell id="IJgvYfBa4twYxpsfo-ho-24" value="name    " style="text;strokeColor=#FFFFFF;fillColor=#FDE5CD;spacingLeft=10;spacingRight=0;overflow=hidden;rotatable=0;points=[[0,0.5],[1,0.5]];portConstraint=eastwest;fontSize=16;strokeWidth=2;sketch=0;shadow=0;rounded=0;glass=0;spacing=0;" parent="IJgvYfBa4twYxpsfo-ho-22" vertex="1">
          <mxGeometry y="70" width="165" height="30" as="geometry" />
        </mxCell>
        <mxCell id="IJgvYfBa4twYxpsfo-ho-25" value="rate" style="text;strokeColor=#FFFFFF;fillColor=#FDE5CD;spacingLeft=10;spacingRight=0;overflow=hidden;rotatable=0;points=[[0,0.5],[1,0.5]];portConstraint=eastwest;fontSize=16;strokeWidth=2;sketch=0;shadow=0;rounded=0;glass=0;spacing=0;" parent="IJgvYfBa4twYxpsfo-ho-22" vertex="1">
          <mxGeometry y="100" width="165" height="30" as="geometry" />
        </mxCell>
        <mxCell id="37sV9JPSji_vyPsbSzuJ-127" value="address" style="text;strokeColor=#FFFFFF;fillColor=#FDE5CD;spacingLeft=10;spacingRight=0;overflow=hidden;rotatable=0;points=[[0,0.5],[1,0.5]];portConstraint=eastwest;fontSize=16;strokeWidth=2;sketch=0;shadow=0;rounded=0;glass=0;spacing=0;" parent="IJgvYfBa4twYxpsfo-ho-22" vertex="1">
          <mxGeometry y="130" width="165" height="30" as="geometry" />
        </mxCell>
        <mxCell id="37sV9JPSji_vyPsbSzuJ-138" value="FK : category_id" style="text;strokeColor=#FFFFFF;fillColor=#FDE5CD;spacingLeft=10;spacingRight=0;overflow=hidden;rotatable=0;points=[[0,0.5],[1,0.5]];portConstraint=eastwest;fontSize=16;strokeWidth=2;sketch=0;shadow=0;rounded=0;glass=0;spacing=0;" parent="IJgvYfBa4twYxpsfo-ho-22" vertex="1">
          <mxGeometry y="160" width="165" height="30" as="geometry" />
        </mxCell>
        <mxCell id="IJgvYfBa4twYxpsfo-ho-26" style="edgeStyle=orthogonalEdgeStyle;rounded=0;orthogonalLoop=1;jettySize=auto;html=1;fontSize=16;fontColor=#FFFFFF;strokeWidth=3;strokeColor=#33BFCC;entryX=0;entryY=0.5;entryDx=0;entryDy=0;exitX=1;exitY=0.5;exitDx=0;exitDy=0;" parent="1" source="IJgvYfBa4twYxpsfo-ho-23" target="IJgvYfBa4twYxpsfo-ho-17" edge="1">
          <mxGeometry relative="1" as="geometry">
            <mxPoint x="680" y="495" as="sourcePoint" />
            <mxPoint x="920.0000000000005" y="355" as="targetPoint" />
            <Array as="points">
              <mxPoint x="720" y="495" />
              <mxPoint x="720" y="325" />
            </Array>
          </mxGeometry>
        </mxCell>
        <mxCell id="IJgvYfBa4twYxpsfo-ho-27" value="M" style="text;html=1;align=center;verticalAlign=middle;resizable=0;points=[];autosize=1;strokeColor=none;fillColor=none;fontSize=16;fontColor=#000000;" parent="1" vertex="1">
          <mxGeometry x="730" y="330" width="30" height="20" as="geometry" />
        </mxCell>
        <mxCell id="IJgvYfBa4twYxpsfo-ho-28" value="1" style="text;html=1;align=center;verticalAlign=middle;resizable=0;points=[];autosize=1;strokeColor=none;fillColor=none;fontSize=16;fontColor=#000000;" parent="1" vertex="1">
          <mxGeometry x="685" y="470" width="20" height="20" as="geometry" />
        </mxCell>
        <mxCell id="IJgvYfBa4twYxpsfo-ho-19" style="edgeStyle=orthogonalEdgeStyle;rounded=0;orthogonalLoop=1;jettySize=auto;html=1;fontSize=16;fontColor=#FFFFFF;strokeWidth=3;strokeColor=#33BFCC;exitX=1;exitY=0.5;exitDx=0;exitDy=0;entryX=0;entryY=0.5;entryDx=0;entryDy=0;" parent="1" source="IJgvYfBa4twYxpsfo-ho-7" target="IJgvYfBa4twYxpsfo-ho-16" edge="1">
          <mxGeometry relative="1" as="geometry">
            <mxPoint x="400" y="245" as="sourcePoint" />
            <mxPoint x="499.99999999999994" y="305" as="targetPoint" />
            <Array as="points">
              <mxPoint x="720" y="235" />
              <mxPoint x="720" y="295" />
            </Array>
          </mxGeometry>
        </mxCell>
        <mxCell id="37sV9JPSji_vyPsbSzuJ-128" value="comments" style="swimlane;fontStyle=0;childLayout=stackLayout;horizontal=1;startSize=40;horizontalStack=0;resizeParent=1;resizeParentMax=0;resizeLast=0;collapsible=1;marginBottom=0;align=left;fontSize=16;fontColor=#FFFFFF;fillColor=#FF6602;spacing=0;strokeColor=#FFFFFF;strokeWidth=2;spacingLeft=10;" parent="1" vertex="1">
          <mxGeometry x="260" y="440" width="165" height="190" as="geometry">
            <mxRectangle x="150" y="220" width="110" height="40" as="alternateBounds" />
          </mxGeometry>
        </mxCell>
        <mxCell id="37sV9JPSji_vyPsbSzuJ-129" value="PK : id" style="text;strokeColor=#FFFFFF;fillColor=#FDE5CD;spacingLeft=10;spacingRight=0;overflow=hidden;rotatable=0;points=[[0,0.5],[1,0.5]];portConstraint=eastwest;fontSize=16;strokeWidth=2;perimeterSpacing=0;sketch=0;shadow=0;rounded=0;glass=0;spacing=0;fontStyle=0" parent="37sV9JPSji_vyPsbSzuJ-128" vertex="1">
          <mxGeometry y="40" width="165" height="30" as="geometry" />
        </mxCell>
        <mxCell id="37sV9JPSji_vyPsbSzuJ-130" value="content" style="text;strokeColor=#FFFFFF;fillColor=#FDE5CD;spacingLeft=10;spacingRight=0;overflow=hidden;rotatable=0;points=[[0,0.5],[1,0.5]];portConstraint=eastwest;fontSize=16;strokeWidth=2;sketch=0;shadow=0;rounded=0;glass=0;spacing=0;" parent="37sV9JPSji_vyPsbSzuJ-128" vertex="1">
          <mxGeometry y="70" width="165" height="30" as="geometry" />
        </mxCell>
        <mxCell id="37sV9JPSji_vyPsbSzuJ-142" value="date" style="text;strokeColor=#FFFFFF;fillColor=#FDE5CD;spacingLeft=10;spacingRight=0;overflow=hidden;rotatable=0;points=[[0,0.5],[1,0.5]];portConstraint=eastwest;fontSize=16;strokeWidth=2;sketch=0;shadow=0;rounded=0;glass=0;spacing=0;" parent="37sV9JPSji_vyPsbSzuJ-128" vertex="1">
          <mxGeometry y="100" width="165" height="30" as="geometry" />
        </mxCell>
        <mxCell id="37sV9JPSji_vyPsbSzuJ-143" value="FK : user_id" style="text;strokeColor=#FFFFFF;fillColor=#FDE5CD;spacingLeft=10;spacingRight=0;overflow=hidden;rotatable=0;points=[[0,0.5],[1,0.5]];portConstraint=eastwest;fontSize=16;strokeWidth=2;sketch=0;shadow=0;rounded=0;glass=0;spacing=0;" parent="37sV9JPSji_vyPsbSzuJ-128" vertex="1">
          <mxGeometry y="130" width="165" height="30" as="geometry" />
        </mxCell>
        <mxCell id="37sV9JPSji_vyPsbSzuJ-131" value="FK : restaurant_id" style="text;strokeColor=#FFFFFF;fillColor=#FDE5CD;spacingLeft=10;spacingRight=0;overflow=hidden;rotatable=0;points=[[0,0.5],[1,0.5]];portConstraint=eastwest;fontSize=16;strokeWidth=2;sketch=0;shadow=0;rounded=0;glass=0;spacing=0;" parent="37sV9JPSji_vyPsbSzuJ-128" vertex="1">
          <mxGeometry y="160" width="165" height="30" as="geometry" />
        </mxCell>
        <mxCell id="37sV9JPSji_vyPsbSzuJ-133" value="categories" style="swimlane;fontStyle=0;childLayout=stackLayout;horizontal=1;startSize=40;horizontalStack=0;resizeParent=1;resizeParentMax=0;resizeLast=0;collapsible=1;marginBottom=0;align=left;fontSize=16;fontColor=#FFFFFF;fillColor=#FF6602;spacing=0;strokeColor=#FFFFFF;strokeWidth=2;spacingLeft=10;" parent="1" vertex="1">
          <mxGeometry x="770" y="440" width="165" height="130" as="geometry">
            <mxRectangle x="150" y="220" width="110" height="40" as="alternateBounds" />
          </mxGeometry>
        </mxCell>
        <mxCell id="37sV9JPSji_vyPsbSzuJ-134" value="PK : id" style="text;strokeColor=#FFFFFF;fillColor=#FDE5CD;spacingLeft=10;spacingRight=0;overflow=hidden;rotatable=0;points=[[0,0.5],[1,0.5]];portConstraint=eastwest;fontSize=16;strokeWidth=2;perimeterSpacing=0;sketch=0;shadow=0;rounded=0;glass=0;spacing=0;fontStyle=0" parent="37sV9JPSji_vyPsbSzuJ-133" vertex="1">
          <mxGeometry y="40" width="165" height="30" as="geometry" />
        </mxCell>
        <mxCell id="37sV9JPSji_vyPsbSzuJ-135" value="name    " style="text;strokeColor=#FFFFFF;fillColor=#FDE5CD;spacingLeft=10;spacingRight=0;overflow=hidden;rotatable=0;points=[[0,0.5],[1,0.5]];portConstraint=eastwest;fontSize=16;strokeWidth=2;sketch=0;shadow=0;rounded=0;glass=0;spacing=0;" parent="37sV9JPSji_vyPsbSzuJ-133" vertex="1">
          <mxGeometry y="70" width="165" height="30" as="geometry" />
        </mxCell>
        <mxCell id="37sV9JPSji_vyPsbSzuJ-155" value="icon" style="text;strokeColor=#FFFFFF;fillColor=#FDE5CD;spacingLeft=10;spacingRight=0;overflow=hidden;rotatable=0;points=[[0,0.5],[1,0.5]];portConstraint=eastwest;fontSize=16;strokeWidth=2;sketch=0;shadow=0;rounded=0;glass=0;spacing=0;" parent="37sV9JPSji_vyPsbSzuJ-133" vertex="1">
          <mxGeometry y="100" width="165" height="30" as="geometry" />
        </mxCell>
        <mxCell id="37sV9JPSji_vyPsbSzuJ-141" style="edgeStyle=orthogonalEdgeStyle;rounded=0;orthogonalLoop=1;jettySize=auto;html=1;fontSize=16;fontColor=#FFFFFF;strokeWidth=3;strokeColor=#33BFCC;entryX=1;entryY=0.5;entryDx=0;entryDy=0;exitX=0;exitY=0.5;exitDx=0;exitDy=0;" parent="1" source="37sV9JPSji_vyPsbSzuJ-134" target="37sV9JPSji_vyPsbSzuJ-138" edge="1">
          <mxGeometry relative="1" as="geometry">
            <mxPoint x="830" y="615" as="sourcePoint" />
            <mxPoint x="930.0600000000004" y="510" as="targetPoint" />
            <Array as="points">
              <mxPoint x="730" y="495" />
              <mxPoint x="730" y="615" />
            </Array>
          </mxGeometry>
        </mxCell>
        <mxCell id="37sV9JPSji_vyPsbSzuJ-145" style="edgeStyle=orthogonalEdgeStyle;rounded=0;orthogonalLoop=1;jettySize=auto;html=1;fontSize=16;fontColor=#FFFFFF;strokeWidth=3;strokeColor=#33BFCC;entryX=0;entryY=0.5;entryDx=0;entryDy=0;exitX=0;exitY=0.5;exitDx=0;exitDy=0;" parent="1" source="IJgvYfBa4twYxpsfo-ho-2" target="37sV9JPSji_vyPsbSzuJ-143" edge="1">
          <mxGeometry relative="1" as="geometry">
            <mxPoint x="210" y="180" as="sourcePoint" />
            <mxPoint x="210" y="600" as="targetPoint" />
            <Array as="points">
              <mxPoint x="220" y="235" />
              <mxPoint x="220" y="585" />
            </Array>
          </mxGeometry>
        </mxCell>
        <mxCell id="37sV9JPSji_vyPsbSzuJ-146" style="edgeStyle=orthogonalEdgeStyle;rounded=0;orthogonalLoop=1;jettySize=auto;html=1;fontSize=16;fontColor=#FFFFFF;strokeWidth=3;strokeColor=#33BFCC;entryX=1;entryY=0.5;entryDx=0;entryDy=0;exitX=0;exitY=0.5;exitDx=0;exitDy=0;" parent="1" source="IJgvYfBa4twYxpsfo-ho-23" target="37sV9JPSji_vyPsbSzuJ-131" edge="1">
          <mxGeometry relative="1" as="geometry">
            <mxPoint x="430.0600000000004" y="610" as="sourcePoint" />
            <mxPoint x="160.05999999999995" y="730" as="targetPoint" />
          </mxGeometry>
        </mxCell>
        <mxCell id="37sV9JPSji_vyPsbSzuJ-147" value="M" style="text;html=1;align=center;verticalAlign=middle;resizable=0;points=[];autosize=1;strokeColor=none;fillColor=none;fontSize=16;fontColor=#000000;" parent="1" vertex="1">
          <mxGeometry x="220" y="560" width="30" height="20" as="geometry" />
        </mxCell>
        <mxCell id="37sV9JPSji_vyPsbSzuJ-148" value="&lt;div&gt;1&lt;/div&gt;" style="text;html=1;align=center;verticalAlign=middle;resizable=0;points=[];autosize=1;strokeColor=none;fillColor=none;fontSize=16;fontColor=#000000;" parent="1" vertex="1">
          <mxGeometry x="230" y="210" width="20" height="20" as="geometry" />
        </mxCell>
        <mxCell id="37sV9JPSji_vyPsbSzuJ-149" value="1" style="text;html=1;align=center;verticalAlign=middle;resizable=0;points=[];autosize=1;strokeColor=none;fillColor=none;fontSize=16;fontColor=#000000;" parent="1" vertex="1">
          <mxGeometry x="480" y="470" width="20" height="20" as="geometry" />
        </mxCell>
        <mxCell id="37sV9JPSji_vyPsbSzuJ-150" value="1" style="text;html=1;align=center;verticalAlign=middle;resizable=0;points=[];autosize=1;strokeColor=none;fillColor=none;fontSize=16;fontColor=#000000;" parent="1" vertex="1">
          <mxGeometry x="740" y="470" width="20" height="20" as="geometry" />
        </mxCell>
        <mxCell id="37sV9JPSji_vyPsbSzuJ-151" value="M" style="text;html=1;align=center;verticalAlign=middle;resizable=0;points=[];autosize=1;strokeColor=none;fillColor=none;fontSize=16;fontColor=#000000;" parent="1" vertex="1">
          <mxGeometry x="690" y="590" width="30" height="20" as="geometry" />
        </mxCell>
        <mxCell id="37sV9JPSji_vyPsbSzuJ-152" value="M" style="text;html=1;align=center;verticalAlign=middle;resizable=0;points=[];autosize=1;strokeColor=none;fillColor=none;fontSize=16;fontColor=#000000;" parent="1" vertex="1">
          <mxGeometry x="435" y="590" width="30" height="20" as="geometry" />
        </mxCell>
      </root>
    </mxGraphModel>
  </diagram>
</mxfile>
